<?xml version="1.0" encoding="utf-8"?>
<!-- Generator: Adobe Illustrator 25.4.1, SVG Export Plug-In . SVG Version: 6.00 Build 0)  -->
<svg version="1.1" id="Capa_1" xmlns="http://www.w3.org/2000/svg" xmlns:xlink="http://www.w3.org/1999/xlink" x="0px" y="0px"
	 viewBox="0 0 255.1000061 255.1000061" style="enable-background:new 0 0 255.1000061 255.1000061;" xml:space="preserve">
<style type="text/css">
	.st0{fill:#9FA19F;}
	.st1{fill-rule:evenodd;clip-rule:evenodd;fill:#FFFFFF;}
</style>
<circle class="st0" cx="127.5999985" cy="127.5500031" r="121.5999985"/>
<path class="st1" d="M188.9491272,95.7942734c4.246582-4.1416016,6.885437-9.9237671,6.885437-16.3297119
	c0-12.6052246-10.2042847-22.8095093-22.8095093-22.8095093c-7.0979004,0-13.434082,3.2357178-17.6162109,8.3134155
	c-8.5187378-3.7091064-17.918396-5.7780762-27.8088455-5.7780762c-9.8323975,0-19.1808472,2.0427856-27.6599121,5.7108154
	c-4.1826172-5.0385742-10.493103-8.2461548-17.5592041-8.2461548c-12.6052856,0-22.8095703,10.2042847-22.8095703,22.8095093
	c0,6.3370972,2.5804443,12.0658569,6.7470703,16.1978149c-5.3548584,9.8690186-8.3956909,21.1793213-8.3956909,33.2053299
	c0,38.5058594,31.1714478,69.6772461,69.6773071,69.6772461s69.6773148-31.1713867,69.6773148-69.6772461
	C197.2773132,116.8945541,194.2601624,105.6325302,188.9491272,95.7942734z M127.5284653,177.941925
	c-25.783165,0-46.5532837-21.0561218-46.5532837-46.6962891c0-25.6402359,20.9131165-46.6963577,46.6962891-46.6963577
	c25.783226,0,46.5533524,20.9131241,46.5533524,46.6963577C174.224823,157.0287933,153.3116913,177.941925,127.5284653,177.941925z"
	/>
</svg>
